<svg id="folderOpen" viewBox="0 0 100 100" width="32px" height="32px" xmlns="http://www.w3.org/2000/svg">
    <defs>
        <mask id="labelMask" mask-mode="alpha">
            <rect width="100" height="100" x="0" y="0" rx="0" fill="white"  />
            <rect width="40" x="35" rx="5" fill="black" transform="skewX(20)" height="20" y="5"/>
        </mask>
        <linearGradient id="gradient0" gradientUnits="objectBoundingBox" x1="0" y1="0" x2="1.4142135623731" y2="0" spreadMethod="pad">
            <stop stop-color="#f6676d" offset="0.0105263157894737" stop-opacity="1"/>
            <stop stop-color="#f68958" offset="0.0526315789473684" stop-opacity="1"/>
            <stop stop-color="#9f46c4" offset="0.452631578947368" stop-opacity="1"/>
            <stop stop-color="#59f0eb" offset="0.763157894736842" stop-opacity="1"/>
        </linearGradient>
    </defs>
    <rect x="5" y="20" width="90" height="65" rx="5" fill="#d7d7d7"/>
    <rect x="5" y="13" width="40" height="30" rx="5" mask="url(#labelMask)" fill="#d7d7d7"/>
    <g transform="translate(10,25)">
        <rect x="0" y="0" rx="5" fill="#a4a4a4" height="60" width="90" transform="skewX(-5)"/>
    </g>
    <g transform="translate(30, 30), scale(0.1) , rotate(25, 50, 50), skewX(-5)">
        <path x="0" y="0" width="704" height="330" fill="url(#gradient0)" fill-rule="evenodd" d="M44 101.512C55 99.012 75 96.512 84 93.012C93 89.512 96 90.012 99.5 83.512C103 77.012 106 70.012 111 67.012C116 64.012 126 63.012 128 62.012C130 61.012 154 -0.988033 215.5 0.0119675C256.5 0.678634 287.5 22.8453 308.5 66.512C310.167 76.1786 314.667 81.1786 322 81.512C333 82.012 352.5 45.012 403 46.012C436.667 46.6786 462.333 60.6786 480 88.012C483 93.3453 486.667 96.3453 491 97.012C495.333 97.6786 499.833 97.012 504.5 95.012C521.167 86.3453 533.833 83.8453 542.5 87.512C551.167 91.1786 556.333 98.3453 558 109.012C558.333 113.345 560 116.012 563 117.012C566 118.012 569.833 118.012 574.5 117.012C586.833 110.012 596.167 106.679 602.5 107.012C612 107.512 662.5 124.512 656 176.012C651.667 210.345 632.5 228.512 598.5 230.512C572.167 227.512 553.5 227.679 542.5 231.012C526 236.012 499.5 275.512 454.5 275.012C409.5 274.512 374 240.512 357 239.512C340 238.512 318 280.512 263.5 277.512C209 274.512 202 253.512 198.5 252.512C195 251.512 188 256.012 170.5 255.512C153 255.012 133.5 229.012 102.5 227.512C71.5 226.012 2 235.012 0 167.012C2 104.512 33 104.012 44 101.512Z"/>
    </g>
</svg>