<?xml version="1.0" standalone="no"?>
<!DOCTYPE svg PUBLIC "-//W3C//DTD SVG 20010904//EN" "http://www.w3.org/TR/2001/REC-SVG-20010904/DTD/svg10.dtd">
<!-- Created using Krita: https://krita.org -->
<svg xmlns="http://www.w3.org/2000/svg" 
    xmlns:xlink="http://www.w3.org/1999/xlink"
    xmlns:krita="http://krita.org/namespaces/svg/krita"
    xmlns:sodipodi="http://sodipodi.sourceforge.net/DTD/sodipodi-0.dtd"
    width="400pt"
    height="46pt"
    >
<defs/>
<path id="logoText" transform="translate(0, 46)" fill="#fbfaf9" fill-rule="evenodd" stroke="#000000" stroke-opacity="0" stroke-width="0" stroke-linecap="square" stroke-linejoin="bevel" d="M38.1563 -14.0938C38.1563 -9.88542 36.6719 -6.39063 33.7031 -3.60938C30.2448 -0.432292 25.2865 1.15625 18.8281 1.15625C16.3594 1.15625 13.349 0.625 9.79688 -0.4375C8.31771 -0.791667 7.18229 -1.66667 6.39063 -3.0625C5.57813 -4.4375 5.35938 -5.92708 5.73438 -7.53125L5.85938 -7.67188C6.21354 -9.19271 7.10417 -10.349 8.53125 -11.1406C10 -11.9635 11.5365 -12.1094 13.1406 -11.5781C15.7969 -10.7344 18 -10.3125 19.75 -10.3125C21.3125 -10.3125 22.5182 -10.6042 23.3672 -11.1875C24.2161 -11.7708 24.6406 -12.4531 24.6406 -13.2344C24.6406 -14.0885 24.3021 -14.7865 23.625 -15.3281C22.6771 -16.0677 20.9583 -16.8906 18.4688 -17.7969C9.67708 -20.9323 5.28125 -25.8073 5.28125 -32.4219C5.28125 -36.9323 7.00521 -40.5208 10.4531 -43.1875C13.7865 -45.875 18.1354 -47.2188 23.5 -47.2188C25.4271 -47.2188 27.974 -46.8333 31.1406 -46.0625C32.651 -45.7083 33.8177 -44.8203 34.6406 -43.3984C35.4635 -41.9766 35.6458 -40.3854 35.1875 -38.625L34.1406 -39.0938C34.3802 -37.5 33.8698 -36.3281 32.6094 -35.5781C31.2865 -34.7656 29.8542 -34.5729 28.3125 -35C24.1354 -36.1667 21.2865 -36.151 19.7656 -34.9531C19.1094 -34.4323 18.7813 -33.8307 18.7813 -33.1484C18.7813 -32.4661 19.1406 -31.8958 19.8594 -31.4375C20.9219 -30.7396 23.1354 -29.7552 26.5 -28.4844C34.2708 -25.5677 38.1563 -20.7708 38.1563 -14.0938M74.0156 -30.9063L85.7813 -30.9063L85.7813 -40.375C85.7813 -42.2396 86.4219 -43.8333 87.7031 -45.1563C88.9844 -46.4896 90.5781 -47.1563 92.4844 -47.1563L92.5469 -47.1563C94.4219 -47.1563 96.0104 -46.4896 97.3125 -45.1563C98.625 -43.8438 99.2813 -42.25 99.2813 -40.375L99.2813 -6.3125C99.2813 -4.44792 98.6198 -2.84896 97.2969 -1.51563C95.974 -0.223958 94.3906 0.421875 92.5469 0.421875L92.4844 0.421875C90.5885 0.421875 88.9896 -0.234375 87.6875 -1.54688C86.4167 -2.86979 85.7813 -4.45833 85.7813 -6.3125L85.7813 -19.2656L74.0156 -19.2656L74.0156 -6.3125C74.0156 -4.44792 73.3594 -2.85938 72.0469 -1.54688C70.7344 -0.234375 69.1302 0.421875 67.2344 0.421875L67.125 0.421875C65.2604 0.421875 63.6771 -0.229167 62.375 -1.53125C61.0833 -2.86458 60.4375 -4.45833 60.4375 -6.3125L60.4375 -40.375C60.4375 -42.2396 61.0859 -43.8359 62.3828 -45.1641C63.6797 -46.4922 65.2604 -47.1563 67.125 -47.1563L67.2344 -47.1563C69.099 -47.1563 70.6953 -46.4948 72.0234 -45.1719C73.3516 -43.849 74.0156 -42.25 74.0156 -40.375L74.0156 -30.9063M135.109 -25.0938L135.594 -6.39063C135.656 -4.65104 135.026 -3.07813 133.703 -1.67188C132.422 -0.317708 130.839 0.359375 128.953 0.359375L128.813 0.359375C126.594 0.359375 124.839 -0.302083 123.547 -1.625C122.224 -2.89583 121.563 -4.46875 121.563 -6.34375L121.563 -40.1719C121.563 -41.9948 122.219 -43.5625 123.531 -44.875C124.75 -46.1563 126.302 -46.7969 128.188 -46.7969L131.281 -46.7969C133.667 -46.7969 135.49 -45.849 136.75 -43.9531L152.359 -20.8438L151.828 -40.125C151.766 -41.9479 152.417 -43.5156 153.781 -44.8281C155.104 -46.1406 156.661 -46.7969 158.453 -46.7969L158.594 -46.7969C160.854 -46.7969 162.635 -46.1615 163.938 -44.8906C165.219 -43.6094 165.859 -42.0365 165.859 -40.1719L165.859 -9.375C165.859 -7.75 164.984 -5.53646 163.234 -2.73438C161.557 -0.671875 159.224 0.359375 156.234 0.359375L156.031 0.359375C152.469 0.359375 149.734 -1.20833 147.828 -4.34375L135.109 -25.0938M205.016 -11.4375C207.005 -8.94792 209.242 -7.70313 211.727 -7.70313C214.211 -7.70313 216.503 -8.92969 218.602 -11.3828C220.701 -13.8359 221.75 -18.6875 221.75 -25.9375C221.75 -29.4271 220.698 -32.3984 218.594 -34.8516C216.49 -37.3047 214.195 -38.5313 211.711 -38.5313C209.227 -38.5313 207.016 -37.3229 205.078 -34.9063C203.047 -32.3958 202.031 -29.4063 202.031 -25.9375C202.031 -18.7604 203.026 -13.9271 205.016 -11.4375M213.578 -47.2813C219.88 -46.4896 225.143 -43.9792 229.367 -39.75C233.591 -35.5208 235.703 -30.0182 235.703 -23.2422C235.703 -16.4661 233.698 -10.9167 229.688 -6.59375C225.688 -2.29167 220.286 0.0572917 213.484 0.453125C213.172 0.473958 212.898 0.523438 212.664 0.601563C212.43 0.679688 212.24 0.40625 212.094 -0.21875L211.609 0.59375C211.516 0.59375 211.448 0.59375 211.406 0.59375C211.135 0.645833 210.714 0.59375 210.141 0.4375C203.266 -0.21875 197.88 -2.60938 193.984 -6.73438C190.089 -10.8594 188.141 -16.3542 188.141 -23.2188C188.141 -30.0833 190.315 -35.6693 194.664 -39.9766C199.013 -44.2839 204.214 -46.7188 210.266 -47.2813C210.995 -47.3646 211.547 -47.4063 211.922 -47.4063C212.328 -47.4063 212.88 -47.3646 213.578 -47.2813M273.031 -11.4375C275.021 -8.94792 277.258 -7.70313 279.742 -7.70313C282.227 -7.70313 284.518 -8.92969 286.617 -11.3828C288.716 -13.8359 289.766 -18.6875 289.766 -25.9375C289.766 -29.4271 288.714 -32.3984 286.609 -34.8516C284.505 -37.3047 282.211 -38.5313 279.727 -38.5313C277.242 -38.5313 275.031 -37.3229 273.094 -34.9063C271.063 -32.3958 270.047 -29.4063 270.047 -25.9375C270.047 -18.7604 271.042 -13.9271 273.031 -11.4375M281.594 -47.2813C287.896 -46.4896 293.159 -43.9792 297.383 -39.75C301.607 -35.5208 303.719 -30.0182 303.719 -23.2422C303.719 -16.4661 301.714 -10.9167 297.703 -6.59375C293.703 -2.29167 288.302 0.0572917 281.5 0.453125C281.188 0.473958 280.914 0.523438 280.68 0.601563C280.445 0.679688 280.255 0.40625 280.109 -0.21875L279.625 0.59375C279.531 0.59375 279.464 0.59375 279.422 0.59375C279.151 0.645833 278.729 0.59375 278.156 0.4375C271.281 -0.21875 265.896 -2.60938 262 -6.73438C258.104 -10.8594 256.156 -16.3542 256.156 -23.2188C256.156 -30.0833 258.331 -35.6693 262.68 -39.9766C267.029 -44.2839 272.229 -46.7188 278.281 -47.2813C279.01 -47.3646 279.563 -47.4063 279.938 -47.4063C280.344 -47.4063 280.896 -47.3646 281.594 -47.2813M338.641 -7.64063C338.641 -7.64063 338.651 -7.64063 338.672 -7.64063C342.786 -7.64063 346.281 -8.96354 349.156 -11.6094C351.719 -13.9323 353 -18.625 353 -25.6875C353 -29.6042 351.719 -32.7396 349.156 -35.0938C346.281 -37.7396 342.786 -39.0625 338.672 -39.0625C338.672 -39.0625 338.661 -39.0625 338.641 -39.0625C338.109 -39.0625 337.651 -38.875 337.266 -38.5C336.901 -38.1458 336.719 -37.6719 336.719 -37.0781L336.719 -9.625C336.719 -9.0625 336.906 -8.58854 337.281 -8.20313C337.656 -7.82813 338.109 -7.64063 338.641 -7.64063M328.656 -46.5938C333.75 -46.9479 337.109 -47.125 338.734 -47.125C346.953 -47.125 353.818 -44.9818 359.328 -40.6953C364.839 -36.4089 367.594 -30.4792 367.594 -22.9063C367.594 -16.0833 365.245 -10.5781 360.547 -6.39063C355.547 -2.03646 348.667 0.140625 339.906 0.140625C338.333 0.140625 334.63 0 328.797 -0.28125C327.443 -0.354167 326.333 -0.859375 325.469 -1.79688C324.604 -2.73438 324.172 -3.86458 324.172 -5.1875L324.172 -41.75C324.172 -43.0313 324.615 -44.151 325.5 -45.1094C326.344 -45.9635 327.396 -46.4583 328.656 -46.5938M395.969 -47.0156C398.167 -47.0156 399.958 -46.3698 401.344 -45.0781C402.729 -43.7865 403.406 -42.1771 403.375 -40.25L402.797 -11.3281L416.281 -11.9219C417.844 -12.026 419.193 -11.474 420.328 -10.2656C421.422 -9.14063 421.969 -7.82292 421.969 -6.3125L421.969 -6.25C421.969 -4.30208 421.443 -2.77083 420.391 -1.65625C419.286 -0.552083 417.953 0 416.391 0L396.172 0C394.411 0 392.901 -0.614583 391.641 -1.84375C390.411 -3.07292 389.797 -4.58854 389.797 -6.39063L389.797 -40.2813C389.797 -42.0938 390.438 -43.6563 391.719 -44.9688C393.021 -46.3333 394.401 -47.0156 395.859 -47.0156L395.969 -47.0156M457.578 -10.5938L470.594 -10.8438C472.031 -10.875 473.315 -10.3724 474.445 -9.33594C475.576 -8.29948 476.141 -6.97396 476.141 -5.35938L476.141 -5.21875C476.141 -3.71875 475.609 -2.42188 474.547 -1.32813C473.474 -0.255208 472.167 0.28125 470.625 0.28125L451.781 0.28125C449.656 0.28125 447.828 -0.486979 446.297 -2.02344C444.766 -3.5599 444 -5.39063 444 -7.51563L444 -39.3281C444 -41.4115 444.734 -43.2344 446.203 -44.7969C447.693 -46.349 449.552 -47.125 451.781 -47.125L469.672 -47.125C471.495 -47.125 472.927 -46.4688 473.969 -45.1563C475.521 -43.2604 475.875 -41.4505 475.031 -39.7266C474.188 -38.0026 473.547 -36.9635 473.109 -36.6094C472.016 -35.7448 470.823 -35.3438 469.531 -35.4063L457.578 -35.9688L457.578 -29.0938L468.797 -29.3594C470.266 -29.401 471.552 -28.901 472.656 -27.8594C473.76 -26.8177 474.313 -25.5208 474.313 -23.9688L474.313 -23.8281C474.313 -22.276 473.763 -20.9661 472.664 -19.8984C471.565 -18.8307 470.276 -18.3177 468.797 -18.3594L457.578 -18.625L457.578 -10.5938"/>
</svg>
